# xmcd
#
# Track frame offsets: 
#        150
#        18770
#        39702
#        60142
#        84050
#        99130
#        126965
#        147682
#        159737
#        171057
#
# Disc length: 3257 seconds
#
# Revision: 4
# Processed by: cddbd v1.5.2PL0 Copyright (c) Steve Scherf et al.
# Submitted via: ExactAudioCopy v0.95a4
#
DISCID=720cb70a
DTITLE=North Mississippi Allstars - Shake Hands With Shorty
DYEAR=2000
DGENRE=Blues
TTITLE0=Shake'Em on Down
TTITLE1=Drop Down Mama
TTITLE2=Po Black Maddie
TTITLE3=Skinny Woman
TTITLE4=Drinking Muddy Water
TTITLE5=Goin' Down South
TTITLE6=K.C. Jones (On the Road Again)
TTITLE7=Station Blues
TTITLE8=Someday Baby
TTITLE9=All Night Long
EXTD=
EXTT0=
EXTT1=
EXTT2=
EXTT3=
EXTT4=
EXTT5=
EXTT6=
EXTT7=
EXTT8=
EXTT9=
PLAYORDER=
